<?xml version="1.0" encoding="UTF-8" standalone="no"?><!DOCTYPE svg PUBLIC "-//W3C//DTD SVG 1.1//EN" "http://www.w3.org/Graphics/SVG/1.1/DTD/svg11.dtd"><svg width="100%" height="100%" viewBox="0 0 254 130" version="1.1" xmlns="http://www.w3.org/2000/svg" xmlns:xlink="http://www.w3.org/1999/xlink" xml:space="preserve" xmlns:serif="http://www.serif.com/" style="fill-rule:evenodd;clip-rule:evenodd;stroke-linejoin:round;stroke-miterlimit:2;"><rect id="Artboard3" x="0" y="0" width="253.103" height="129.186" style="fill:none;"/><clipPath id="_clip1"><rect x="0" y="0" width="253.103" height="129.186"/></clipPath><g clip-path="url(#_clip1)"><clipPath id="_clip2"><rect id="fist" x="0.25" y="-56.793" width="253.103" height="253.103"/></clipPath><g clip-path="url(#_clip2)"><g><path d="M126.801,88.347l-77.481,0c-3.621,0 -6.557,-2.935 -6.557,-6.556l0,-41.214c0,-9.547 7.739,-17.286 17.285,-17.286l44.572,-0c12.25,-0 22.181,9.931 22.181,22.181l0,42.875Z" style="fill:#ffc39c;fill-rule:nonzero;"/><path d="M104.62,23.291l-14.83,-0c12.25,-0 22.181,9.931 22.181,22.181l0,42.875l14.83,0l0,-42.875c0,-12.25 -9.931,-22.181 -22.181,-22.181Z" style="fill:#fdaa8e;fill-rule:nonzero;"/><path d="M126.801,58.666l0,40.329c0,8.152 -6.621,14.761 -14.788,14.761l-5.321,-0c-3.482,-0 -6.306,-2.818 -6.306,-6.294l0,-48.796l26.415,0Z" style="fill:#ffc39c;fill-rule:nonzero;"/><path d="M111.971,58.666l0,40.329c0,6.087 -3.692,11.311 -8.961,13.569c1.036,0.747 2.306,1.191 3.682,1.191l5.321,0c8.167,0 14.788,-6.608 14.788,-14.76l0,-40.329l-14.83,0Z" style="fill:#fdaa8e;fill-rule:nonzero;"/><path d="M42.763,79.503l51.066,0c7.357,0 13.321,5.953 13.321,13.296c0,7.343 -5.964,13.296 -13.321,13.296l-29.691,-0c-11.805,-0 -21.375,-9.552 -21.375,-21.334l0,-5.258Z" style="fill:#ffc39c;fill-rule:nonzero;"/><path d="M93.829,79.503l-14.831,0c7.358,0 13.322,5.953 13.322,13.296c-0,7.343 -5.964,13.296 -13.322,13.296l14.831,-0c7.357,-0 13.321,-5.953 13.321,-13.296c0,-7.344 -5.964,-13.296 -13.321,-13.296Z" style="fill:#fdaa8e;fill-rule:nonzero;"/><path d="M126.801,88.347l77.482,0c3.621,0 6.556,-2.935 6.556,-6.556l0,-41.214c0,-9.547 -7.739,-17.286 -17.285,-17.286l-44.572,-0c-12.25,-0 -22.181,9.931 -22.181,22.181l0,42.875Z" style="fill:#ffc39c;fill-rule:nonzero;"/><path d="M193.554,23.291l-14.83,-0c9.546,-0 17.285,7.739 17.285,17.285l0,41.214c0,3.621 -2.935,6.557 -6.556,6.557l14.83,-0c3.621,-0 6.556,-2.936 6.556,-6.557l0,-41.214c0,-9.546 -7.739,-17.285 -17.285,-17.285Z" style="fill:#fdaa8e;fill-rule:nonzero;"/><path d="M126.801,58.666l0,40.329c0,8.152 6.622,14.761 14.789,14.761l5.32,-0c3.483,-0 6.306,-2.818 6.306,-6.294l0,-48.796l-26.415,0Z" style="fill:#ffc39c;fill-rule:nonzero;"/><path d="M151.792,58.666c-7.404,0 -13.406,6.002 -13.406,13.406l0,35.39c0,2.102 -1.036,3.959 -2.623,5.102c1.788,0.766 3.758,1.191 5.827,1.191l5.32,0c3.483,0 6.306,-2.818 6.306,-6.293l0,-47.371c0,-0.787 -0.637,-1.425 -1.424,-1.425Z" style="fill:#fdaa8e;fill-rule:nonzero;"/><path d="M210.839,79.503l-51.065,0c-7.357,0 -13.322,5.953 -13.322,13.296c0,7.343 5.965,13.296 13.322,13.296l29.691,-0c11.805,-0 21.374,-9.552 21.374,-21.334l0,-5.258Z" style="fill:#ffc39c;fill-rule:nonzero;"/><path d="M196.009,79.503l0,5.258c0,11.782 -9.569,21.334 -21.374,21.334l14.83,-0c11.805,-0 21.374,-9.552 21.374,-21.334l0,-5.258l-14.83,0Z" style="fill:#fdaa8e;fill-rule:nonzero;"/><rect x="3.957" y="27.246" width="38.806" height="88.982" style="fill:#f78e36;fill-rule:nonzero;"/><rect x="27.933" y="27.246" width="14.83" height="88.982" style="fill:#f86f1b;fill-rule:nonzero;"/><rect x="210.839" y="27.246" width="38.806" height="88.982" style="fill:#80deea;fill-rule:nonzero;"/><rect x="234.815" y="27.246" width="14.83" height="88.982" style="fill:#4dd0e1;fill-rule:nonzero;"/><path d="M233.001,56.808l0,-0.047c0,-4.773 -3.869,-8.641 -8.641,-8.641l-13.521,-0l0,17.33l13.521,-0c4.773,-0.001 8.641,-3.87 8.641,-8.642Z" style="fill:#f78e36;fill-rule:nonzero;"/><path d="M20.601,56.808l0,-0.047c0,-4.773 3.87,-8.641 8.642,-8.641l13.52,-0l0,17.33l-13.52,-0c-4.773,-0.001 -8.642,-3.87 -8.642,-8.642Z" style="fill:#80deea;fill-rule:nonzero;"/><path d="M249.645,49.929c2.048,-0 3.708,-1.66 3.708,-3.708l-0,-18.975c-0,-2.048 -1.66,-3.708 -3.708,-3.708l-38.806,0c-1.271,0 -2.393,0.641 -3.061,1.617c-3.743,-3.456 -8.74,-5.572 -14.224,-5.572l-44.572,0c-9.4,0 -17.645,5.038 -22.181,12.554c-4.535,-7.516 -12.78,-12.554 -22.181,-12.554l-25.39,0c-2.047,0 -3.707,1.66 -3.707,3.708c-0,2.047 1.66,3.707 3.707,3.707l25.39,0c10.186,0 18.474,8.288 18.474,18.474l-0,53.522c-0,6.095 -4.972,11.054 -11.083,11.054l-5.32,-0c-1.431,-0 -2.595,-1.16 -2.595,-2.586l0,-1.109c4.105,-3.108 6.762,-8.026 6.762,-13.554c-0,-5.528 -2.657,-10.447 -6.762,-13.554l0,-8.977c0,-4.421 -3.601,-8.018 -8.028,-8.018l-3.426,-0c-2.047,-0 -3.707,1.66 -3.707,3.708c-0,2.047 1.66,3.707 3.707,3.707l3.426,0c0.338,0 0.613,0.271 0.613,0.603l0,5.771c-0.928,-0.158 -1.88,-0.244 -2.852,-0.244l-28.511,0c-2.048,0 -3.708,1.66 -3.708,3.708c0,2.048 1.66,3.708 3.708,3.708l28.511,-0c5.301,-0 9.614,4.301 9.614,9.588c-0,5.287 -4.313,9.588 -9.614,9.588l-29.691,0c-9.742,0 -17.667,-7.907 -17.667,-17.626l-0,-44.184c-0,-7.487 6.091,-13.578 13.577,-13.578l3.465,-0c2.047,-0 3.707,-1.66 3.707,-3.708c0,-2.047 -1.66,-3.707 -3.707,-3.707l-3.465,-0c-5.483,-0 -10.481,2.116 -14.224,5.571c-0.668,-0.976 -1.789,-1.616 -3.061,-1.616l-38.806,-0c-2.047,-0 -3.707,1.66 -3.707,3.707l-0,66.052c-0,2.047 1.66,3.707 3.707,3.707c2.048,0 3.708,-1.66 3.708,-3.707l-0,-62.345l31.391,0l-0,13.459l-9.813,-0c-6.81,-0 -12.349,5.54 -12.349,12.349l-0,0.046c-0,6.81 5.54,12.349 12.349,12.349l9.813,0l-0,43.364l-31.391,-0l-0,-3.099c-0,-2.048 -1.66,-3.708 -3.708,-3.708c-2.047,0 -3.707,1.66 -3.707,3.708l-0,6.806c-0,2.048 1.66,3.708 3.707,3.708l38.806,-0c2.048,-0 3.708,-1.66 3.708,-3.708l-0,-13.71c4.537,4.5 10.781,7.285 17.667,7.285l29.691,0c1.047,0 2.071,-0.1 3.068,-0.282c0.952,4.531 4.981,7.943 9.795,7.943l5.319,0c6.04,0 11.412,-2.906 14.791,-7.39c3.378,4.484 8.75,7.39 14.79,7.39l5.32,0c4.814,0 8.842,-3.412 9.795,-7.943c0.996,0.182 2.02,0.282 3.068,0.282l29.691,0c6.885,0 13.13,-2.785 17.667,-7.285l-0,13.71c-0,2.048 1.66,3.708 3.707,3.708l38.806,-0c2.048,-0 3.708,-1.66 3.708,-3.708l-0,-54.288c-0,-2.048 -1.66,-3.708 -3.708,-3.708c-2.047,-0 -3.707,1.66 -3.707,3.708l-0,50.581l-31.391,-0l-0,-43.363l9.813,-0c6.809,-0 12.349,-5.54 12.349,-12.349l-0,-0.047c-0,-6.809 -5.54,-12.349 -12.349,-12.349l-9.814,0l-0,-13.459l31.391,0l-0,15.268c-0,2.048 1.66,3.708 3.707,3.708Zm-220.402,11.813c-2.721,-0 -4.934,-2.214 -4.934,-4.934l-0,-0.047c-0,-2.721 2.214,-4.934 4.934,-4.934l9.813,0l-0,9.915l-9.813,0l-0,-0Zm160.222,40.645l-29.691,-0c-5.301,-0 -9.614,-4.302 -9.614,-9.589c-0,-5.287 4.313,-9.588 9.614,-9.588l28.511,0c2.047,0 3.707,-1.66 3.707,-3.707c0,-2.048 -1.66,-3.708 -3.707,-3.708l-28.511,-0c-0.972,-0 -1.924,0.086 -2.852,0.243l-0,-5.77c-0,-0.332 0.274,-0.603 0.613,-0.603l3.425,0c2.048,0 3.708,-1.66 3.708,-3.707c-0,-2.048 -1.66,-3.708 -3.708,-3.708l-3.425,-0c-4.427,-0 -8.029,3.597 -8.029,8.018l0,8.976c-4.104,3.108 -6.761,8.027 -6.761,13.554c-0,5.528 2.657,10.447 6.761,13.554l0,1.11c0,1.426 -1.164,2.585 -2.595,2.585l-5.319,0c-6.111,0 -11.083,-4.958 -11.083,-11.053l-0,-53.522c-0,-10.186 8.287,-18.474 18.473,-18.474l44.572,0c7.487,0 13.578,6.091 13.578,13.578l-0,44.185c-0,9.719 -7.925,17.626 -17.667,17.626Zm34.895,-50.56c2.721,-0 4.934,2.213 4.934,4.934l-0,0.046c-0,2.721 -2.214,4.934 -4.934,4.934l-9.813,0l-0,-9.915l9.813,0l-0,0.001Z" style="fill-rule:nonzero;"/></g></g></g></svg>