<?xml version="1.0" encoding="UTF-8" standalone="no"?><!DOCTYPE svg PUBLIC "-//W3C//DTD SVG 1.1//EN" "http://www.w3.org/Graphics/SVG/1.1/DTD/svg11.dtd"><svg width="100%" height="100%" viewBox="0 0 155 179" version="1.1" xmlns="http://www.w3.org/2000/svg" xmlns:xlink="http://www.w3.org/1999/xlink" xml:space="preserve" xmlns:serif="http://www.serif.com/" style="fill-rule:evenodd;clip-rule:evenodd;stroke-linejoin:round;stroke-miterlimit:2;"><rect id="Artboard4" x="0" y="0" width="154.202" height="178.091" style="fill:none;"/><clipPath id="_clip1"><rect x="0" y="0" width="154.202" height="178.091"/></clipPath><g clip-path="url(#_clip1)"><path d="M114.277,16.94l-0,13.388c-0,-3.736 3.028,-6.765 6.765,-6.765c3.736,0 6.765,3.029 6.765,6.765l-0,34.873c0.001,-5.233 4.244,-9.474 9.477,-9.474l4.053,-0l-0,41.473c-0,5.299 -2.69,10.235 -7.143,13.108l-2.177,1.404l0,24.42l-49.011,0l0,-24.42l-2.177,-1.404c-4.452,-2.873 -7.142,-7.809 -7.142,-13.108l-0,-53.35c-0,-3.794 3.104,-6.97 6.896,-6.898c3.676,0.071 6.634,3.072 6.634,6.764l-0,-13.388c-0,-3.736 3.028,-6.765 6.765,-6.765c3.736,-0 6.765,3.028 6.765,6.765l-0,-13.388c-0,-3.737 3.029,-6.765 6.765,-6.765c3.736,-0 6.765,3.028 6.765,6.765Z" style="fill:#c48958;fill-rule:nonzero;"/><g><path d="M114.277,30.328c-0,-3.736 3.028,-6.765 6.765,-6.765l-0,47.388l-6.765,-0l-0,-40.623Z" style="fill:#b27a49;fill-rule:nonzero;"/><path d="M87.217,30.328c-0,-3.736 3.028,-6.765 6.765,-6.765l-0,47.388l-6.765,-0l-0,-40.623Z" style="fill:#b27a49;fill-rule:nonzero;"/><path d="M73.687,43.717c-0,-3.736 3.029,-6.765 6.765,-6.765l-0,33.999l-6.765,-0l-0,-27.234Z" style="fill:#b27a49;fill-rule:nonzero;"/><path d="M100.747,16.94c-0,-3.736 3.028,-6.765 6.765,-6.765l-0,60.776l-6.765,-0l-0,-54.011Z" style="fill:#b27a49;fill-rule:nonzero;"/><path d="M134.572,85.366l-0,8.719l-12.449,0c-5.653,0 -10.252,4.599 -10.252,10.252l-0,31.795l-8.719,0l-0,-31.795c-0,-10.461 8.51,-18.971 18.97,-18.971l5.684,0l0,-20.165c0.001,-4.29 2.854,-7.912 6.765,-9.079l0.001,29.244Z" style="fill:#b27a49;fill-rule:nonzero;"/></g><rect x="77.005" y="122.004" width="61.017" height="28.258" style="fill:#64e1dc;"/><rect x="107.513" y="122.004" width="30.509" height="28.258" style="fill:#00c8c8;"/><path d="M53.326,45.198l-0,13.389c-0,-3.737 -3.029,-6.766 -6.765,-6.766c-3.737,0 -6.765,3.029 -6.765,6.766l-0,34.873c-0.002,-5.233 -4.245,-9.475 -9.478,-9.475l-4.052,0l-0,41.473c-0,5.299 2.69,10.235 7.143,13.108l2.176,1.404l0,24.42l49.011,0l0,-24.42l2.177,-1.404c4.453,-2.873 7.143,-7.809 7.143,-13.108l-0,-53.35c-0,-3.794 -3.104,-6.97 -6.897,-6.898c-3.675,0.071 -6.633,3.072 -6.633,6.764l-0,-13.388c-0,-3.736 -3.029,-6.765 -6.765,-6.765c-3.737,-0 -6.765,3.028 -6.765,6.765l-0,-13.388c-0,-3.736 -3.029,-6.765 -6.765,-6.765c-3.736,-0 -6.765,3.029 -6.765,6.765Z" style="fill:#f2d1a5;fill-rule:nonzero;"/><g><path d="M53.326,58.586c-0,-3.736 -3.029,-6.765 -6.765,-6.765l-0,47.388l6.765,0l-0,-40.623Z" style="fill:#f2bb88;fill-rule:nonzero;"/><path d="M80.386,58.586c-0,-3.736 -3.029,-6.765 -6.765,-6.765l-0,47.388l6.765,0l-0,-40.623Z" style="fill:#f2bb88;fill-rule:nonzero;"/><path d="M93.916,71.976c-0,-3.736 -3.029,-6.765 -6.765,-6.765l-0,33.998l6.765,0l-0,-27.233Z" style="fill:#f2bb88;fill-rule:nonzero;"/><path d="M66.856,45.198c-0,-3.736 -3.029,-6.765 -6.765,-6.765l-0,60.776l6.765,0l-0,-54.011Z" style="fill:#f2bb88;fill-rule:nonzero;"/></g><path d="M26.266,125.458c-0,5.299 2.69,10.235 7.143,13.108l2.176,1.404l0,24.42l49.011,0l0,-7.728l-44.8,-0l-0,-63.202c-0.002,-5.233 -4.245,-9.475 -9.478,-9.475l-4.052,0l-0,41.473Z" style="fill:#f2d1a5;fill-rule:nonzero;"/><path d="M33.031,84.381l0,29.244l6.765,-0l0,-20.166c-0.001,-4.289 -2.854,-7.911 -6.765,-9.078Z" style="fill:#f2bb88;fill-rule:nonzero;"/><rect x="29.584" y="150.262" width="61.017" height="28.258" style="fill:#fe8205;"/><rect x="60.089" y="150.262" width="30.509" height="28.258" style="fill:#fe6a16;"/><rect x="54.875" y="0.429" width="10.435" height="19.493" style="fill:#ffe733;"/><rect x="60.089" y="0.429" width="5.218" height="19.493" style="fill:#e8c917;"/><path d="M43.174,4.102l-10.031,2.87l5.36,18.739l10.032,-2.869l-5.361,-18.74Z" style="fill:#ffe733;"/><path d="M77.002,4.104l-5.36,18.739l10.031,2.87l5.361,-18.74l-10.032,-2.869Z" style="fill:#e8c917;"/></g></svg>